<svg width="36" height="47" viewBox="0 0 36 47" fill="none" xmlns="http://www.w3.org/2000/svg">
<path d="M30.6537 17.6525C29.1392 16.0757 27.3683 14.8155 25.3902 13.9071C23.3486 12.9694 21.1695 12.4468 18.9134 12.3534C18.6728 12.3435 18.429 12.3384 18.1892 12.3384C16.1359 12.3384 14.1264 12.6953 12.2168 13.3991C10.3714 14.0792 8.6656 15.0648 7.14642 16.3284C5.63926 17.582 4.3641 19.0689 3.35679 20.7476C2.32843 22.4611 1.61093 24.3226 1.22466 26.2797C1.00631 27.3848 0.895752 28.5213 0.895752 29.6572C0.895752 31.9952 1.35303 34.2634 2.25487 36.3987C3.12595 38.461 4.37266 40.3132 5.96077 41.9036C7.54888 43.4941 9.39836 44.7429 11.4576 45.615C13.59 46.5181 15.8546 46.9761 18.1892 46.9761C20.5237 46.9761 22.7886 46.5181 24.9207 45.615C26.98 44.7426 28.8295 43.4941 30.4176 41.9036C32.0057 40.3132 33.2526 38.461 34.1235 36.3987C35.0253 34.2632 35.4826 31.995 35.4826 29.6572C35.4826 25.1574 33.7677 20.8938 30.6537 17.652V17.6525ZM33.3946 36.0904C32.5636 38.0584 31.3735 39.8258 29.858 41.3435C28.3423 42.8615 26.5775 44.053 24.6126 44.8853C22.5783 45.747 20.4173 46.1839 18.1894 46.1839C17.6303 46.1839 17.0755 46.1563 16.5259 46.1014L16.9672 45.1225C17.0877 44.8561 17.1007 44.627 17.0574 44.3382L16.8585 43.0062C16.7581 42.3363 16.2273 41.8142 15.5565 41.726L10.9013 41.1142C10.2829 41.0329 9.73906 40.6634 9.43513 40.1179L8.74031 38.8708C8.51895 38.4735 8.16761 38.1649 7.74548 37.9972L6.37318 37.4515C5.88745 37.2583 5.49817 36.88 5.29069 36.3998L4.78391 35.227C4.54752 34.6799 4.07729 34.269 3.5039 34.1087C3.08547 33.9917 2.59442 33.8546 2.19427 33.7429C1.85727 32.4168 1.68703 31.0501 1.68703 29.657C1.68703 28.5725 1.79274 27.4877 2.00091 26.433C2.02404 26.3154 2.04855 26.1981 2.07446 26.0812L2.97723 25.5433L3.84946 25.0235L7.53315 22.8287C7.81996 22.6577 8.01611 22.3682 8.06838 22.0381L8.23468 20.9892C8.30939 20.5176 8.67369 20.1444 9.143 20.059L10.6687 19.7808C11.0401 19.7134 11.3526 19.4637 11.5009 19.1162L12.1994 17.4792C12.2026 17.4718 12.2059 17.4641 12.2094 17.4567C12.3569 17.131 12.6509 16.8941 13.0013 16.8204L14.1835 16.5718C14.3773 16.5308 14.5686 16.5427 14.7437 16.5964C15.1765 16.7301 15.5095 17.1213 15.5364 17.6112L15.581 18.4298C15.6025 18.8241 15.9162 19.1389 16.3096 19.1611C16.3242 19.1621 16.339 19.1623 16.3536 19.1623C16.6288 19.1623 16.8842 19.0157 17.0232 18.7757L18.2252 16.6939L18.6432 15.9703C18.8093 15.6823 18.8969 15.3557 18.8969 15.0231V13.1452C19.6933 13.1788 20.4795 13.2686 21.2527 13.4137L21.7334 15.0391C21.8944 15.583 21.874 16.1646 21.6758 16.6958L20.2857 20.4226C19.8508 21.5885 20.6576 22.8451 21.8969 22.9332L25.6588 23.2C26.303 23.2457 26.9076 23.5289 27.3554 23.9952L30.3905 27.1548C30.8825 27.667 31.5618 27.9565 32.2714 27.9565H34.6048C34.6619 28.518 34.6913 29.0853 34.6913 29.6568C34.6913 31.8879 34.2551 34.0524 33.3946 36.0894V36.0904Z" fill="#103E13"/>
<path d="M18.6649 9.29853C22.9232 7.65828 25.3354 4.6986 25.3541 4.67104C25.347 4.70231 23.7861 8.19291 18.4653 10.2513C18.4059 10.4419 18.3337 10.636 18.2483 10.8329C18.3355 10.9228 18.4276 11.0117 18.5247 11.0988C20.1614 12.5774 24.1326 12.6339 26.2657 9.36385C29.0901 5.03356 26.5617 0 26.5617 0C26.5617 0 25.5153 2.63376 21.7158 3.15842C20.8102 3.28374 19.9935 3.5858 19.3026 4.01271C18.5204 4.49592 17.9315 5.18459 17.5676 5.97216C17.9902 6.42271 18.3108 6.96637 18.4998 7.56562C18.6628 8.08172 18.7325 8.66545 18.6649 9.29853Z" fill="#103E13"/>
<path d="M17.0206 11.3136C17.2005 11.1512 17.3587 10.9835 17.4968 10.8118C13.0056 9.23668 11.7067 6.33214 11.7009 6.30666C11.7166 6.33005 13.9392 9.05647 17.819 10.2221C18.4956 8.6006 17.9081 6.71643 16.4141 5.7938C15.8761 5.4614 15.2398 5.22582 14.5345 5.12853C11.5748 4.71992 10.7597 2.66827 10.7597 2.66827C10.7597 2.66827 8.79065 6.58903 10.9908 9.96218C12.6522 12.5093 15.7454 12.4653 17.0203 11.3138L17.0206 11.3136Z" fill="#103E13"/>
<path d="M27.579 28.2092C27.5085 28.181 27.434 28.1668 27.3597 28.1668C27.2531 28.1668 27.1467 28.1958 27.053 28.2525C26.859 28.3704 26.6448 28.4265 26.4331 28.4265C26.0281 28.4265 25.6331 28.2206 25.4078 27.8486L24.1729 25.8062C23.9078 25.3681 23.4371 25.0962 22.9259 25.0862L18.1884 24.9933C17.637 24.9825 17.0946 25.133 16.6276 25.4265L14.3322 26.8687C12.9321 27.7485 12.2195 29.4029 12.5417 31.0267C12.9122 32.8946 14.5489 34.2402 16.4504 34.2402H18.3545C19.1941 34.2402 19.8855 34.9013 19.9246 35.7413L20.2373 42.4632C20.2692 43.1512 20.8354 43.6926 21.5233 43.6926C21.7486 43.6926 21.9658 43.6337 22.1557 43.5265C22.3458 43.4192 22.5084 43.2638 22.625 43.0706C23.5747 41.4961 26.0089 37.2187 26.7609 33.5699C27.3165 30.874 27.6974 29.572 27.9162 28.9572C28.0229 28.6577 27.8737 28.3274 27.5788 28.2095L27.579 28.2092Z" fill="#103E13"/>
</svg>
