<svg width="37" height="31" viewBox="0 0 37 31" fill="none" xmlns="http://www.w3.org/2000/svg">
<path d="M21.4163 10.0109C21.1042 10.0109 20.8506 9.75763 20.8506 9.44521V8.48389C20.8506 8.17186 21.1038 7.91821 21.4163 7.91821C21.7283 7.91821 21.9819 8.17146 21.9819 8.48389V9.44521C21.9819 9.75763 21.7283 10.0109 21.4163 10.0109Z" fill="#103E13"/>
<path d="M19.0381 10.0109C18.7261 10.0109 18.4724 9.75763 18.4724 9.44521V8.48389C18.4724 8.17186 18.7257 7.91821 19.0381 7.91821C19.3501 7.91821 19.6038 8.17146 19.6038 8.48389V9.44521C19.6034 9.75763 19.3505 10.0109 19.0381 10.0109Z" fill="#103E13"/>
<path d="M16.6599 10.0109C16.3479 10.0109 16.0942 9.75763 16.0942 9.44521V8.48389C16.0942 8.17186 16.3475 7.91821 16.6599 7.91821C16.9719 7.91821 17.2256 8.17146 17.2256 8.48389V9.44521C17.2256 9.75763 16.9723 10.0109 16.6599 10.0109Z" fill="#103E13"/>
<path d="M21.4163 13.9421C21.1042 13.9421 20.8506 13.6888 20.8506 13.3764V12.4155C20.8506 12.1034 21.1038 11.8498 21.4163 11.8498C21.7283 11.8498 21.9819 12.103 21.9819 12.4155V13.3764C21.9819 13.6888 21.7283 13.9421 21.4163 13.9421Z" fill="#103E13"/>
<path d="M19.0381 13.9421C18.7261 13.9421 18.4724 13.6888 18.4724 13.3764V12.4155C18.4724 12.1034 18.7257 11.8498 19.0381 11.8498C19.3501 11.8498 19.6038 12.103 19.6038 12.4155V13.3764C19.6034 13.6888 19.3505 13.9421 19.0381 13.9421Z" fill="#103E13"/>
<path d="M16.6599 13.9421C16.3479 13.9421 16.0942 13.6888 16.0942 13.3764V12.4155C16.0942 12.1034 16.3475 11.8498 16.6599 11.8498C16.9719 11.8498 17.2256 12.103 17.2256 12.4155V13.3764C17.2256 13.6888 16.9723 13.9421 16.6599 13.9421Z" fill="#103E13"/>
<path d="M21.4163 17.8734C21.1042 17.8734 20.8506 17.6201 20.8506 17.3077V16.3464C20.8506 16.0344 21.1038 15.7807 21.4163 15.7807C21.7283 15.7807 21.9819 16.0339 21.9819 16.3464V17.3077C21.9819 17.6201 21.7283 17.8734 21.4163 17.8734Z" fill="#103E13"/>
<path d="M19.0381 17.8734C18.7261 17.8734 18.4724 17.6201 18.4724 17.3077V16.3464C18.4724 16.0344 18.7257 15.7807 19.0381 15.7807C19.3501 15.7807 19.6038 16.0339 19.6038 16.3464V17.3077C19.6034 17.6201 19.3505 17.8734 19.0381 17.8734Z" fill="#103E13"/>
<path d="M16.6599 17.8734C16.3479 17.8734 16.0942 17.6201 16.0942 17.3077V16.3464C16.0942 16.0344 16.3475 15.7807 16.6599 15.7807C16.9719 15.7807 17.2256 16.0339 17.2256 16.3464V17.3077C17.2256 17.6201 16.9723 17.8734 16.6599 17.8734Z" fill="#103E13"/>
<path d="M21.4163 21.8038C21.1042 21.8038 20.8506 21.5505 20.8506 21.2381V20.2768C20.8506 19.9648 21.1038 19.7111 21.4163 19.7111C21.7283 19.7111 21.9819 19.9644 21.9819 20.2768V21.2381C21.9819 21.5505 21.7283 21.8038 21.4163 21.8038Z" fill="#103E13"/>
<path d="M19.0381 21.8038C18.7261 21.8038 18.4724 21.5505 18.4724 21.2381V20.2768C18.4724 19.9648 18.7257 19.7111 19.0381 19.7111C19.3501 19.7111 19.6038 19.9644 19.6038 20.2768V21.2381C19.6034 21.5505 19.3505 21.8038 19.0381 21.8038Z" fill="#103E13"/>
<path d="M16.6599 21.8038C16.3479 21.8038 16.0942 21.5505 16.0942 21.2381V20.2768C16.0942 19.9648 16.3475 19.7111 16.6599 19.7111C16.9719 19.7111 17.2256 19.9644 17.2256 20.2768V21.2381C17.2256 21.5505 16.9723 21.8038 16.6599 21.8038Z" fill="#103E13"/>
<path d="M21.4163 25.735C21.1042 25.735 20.8506 25.4817 20.8506 25.1693V24.2084C20.8506 23.8964 21.1038 23.6427 21.4163 23.6427C21.7283 23.6427 21.9819 23.896 21.9819 24.2084V25.1693C21.9819 25.4813 21.7283 25.735 21.4163 25.735Z" fill="#103E13"/>
<path d="M19.0381 25.735C18.7261 25.735 18.4724 25.4817 18.4724 25.1693V24.2084C18.4724 23.8964 18.7257 23.6427 19.0381 23.6427C19.3501 23.6427 19.6038 23.896 19.6038 24.2084V25.1693C19.6034 25.4813 19.3505 25.735 19.0381 25.735Z" fill="#103E13"/>
<path d="M16.6599 25.735C16.3479 25.735 16.0942 25.4817 16.0942 25.1693L16.0946 24.2084C16.0946 23.8964 16.3479 23.6427 16.6603 23.6427C16.9723 23.6427 17.226 23.896 17.226 24.2084V25.1693C17.2256 25.4813 16.9723 25.735 16.6599 25.735Z" fill="#103E13"/>
<path d="M0.500475 29.6472C0.500475 29.9592 0.753724 30.2128 1.06615 30.2128H35.5139C35.8259 30.2128 36.0796 29.9596 36.0796 29.6472C36.0796 29.3351 35.8263 29.0815 35.5139 29.0815H34.4682V12.8402C34.4682 12.5282 34.215 12.2745 33.9025 12.2745L24.6668 12.2749V0.565793C24.6668 0.367772 24.5635 0.184739 24.3946 0.0821695C24.2262 -0.020784 24.0156 -0.0270953 23.8404 0.0640238L13.3401 5.53101C13.1527 5.62844 13.0359 5.82173 13.0359 6.03278V16.2605H2.87388C2.56186 16.2605 2.3082 16.5137 2.3082 16.8261V29.0816H1.06489C0.752866 29.0812 0.5 29.3344 0.5 29.6469L0.500475 29.6472ZM24.667 20.8423H33.3374V29.082L24.667 29.0816V20.8423ZM24.667 16.9113H33.3374V19.7113L24.667 19.7109V16.9113ZM24.667 13.4057H33.3374V15.7808H24.667V13.4057ZM14.1667 6.37626L23.5353 1.49821V29.0811H14.1667V6.37626ZM6.23588 24.5635C6.23588 23.3896 7.16603 22.4342 8.30959 22.4342C9.45314 22.4342 10.3837 23.3892 10.3837 24.5635V29.0818H6.23588V24.5635ZM3.43952 17.3916H13.0358V29.0816H11.515V24.5633C11.515 22.7657 10.0776 21.303 8.30959 21.303C6.54236 21.303 5.10495 22.7653 5.10495 24.5633V29.0816H3.43952V17.3916Z" fill="#103E13"/>
</svg>
