<svg width="348" height="231" viewBox="0 0 348 231" fill="none" xmlns="http://www.w3.org/2000/svg">
<path d="M317.617 222.817C307.8 208.889 294.783 197.521 279.661 189.668C264.538 181.815 247.752 177.706 230.712 177.688H230.711C226.418 177.688 222.301 175.982 219.265 172.946C216.229 169.911 214.524 165.793 214.524 161.5C214.524 157.207 216.229 153.089 219.265 150.054C222.301 147.018 226.418 145.312 230.711 145.312C245.596 145.312 259.872 139.399 270.397 128.874C280.923 118.348 286.836 104.073 286.836 89.1875C286.836 74.3022 280.923 60.0266 270.397 49.5011C259.872 38.9759 245.597 33.0628 230.712 33.0625C225.586 33.0528 220.484 33.7614 215.555 35.1676L215.549 35.1693C213.492 35.783 211.333 35.9813 209.198 35.7526C207.063 35.5239 204.995 34.8729 203.115 33.8373C201.234 32.8017 199.578 31.4024 198.243 29.7207C196.908 28.039 195.922 26.1086 195.34 24.0418C194.758 21.9751 194.594 19.8133 194.856 17.6823C195.118 15.5514 195.801 13.4938 196.866 11.6294C197.93 9.765 199.355 8.13105 201.058 6.82267C202.76 5.51429 204.706 4.55762 206.781 4.00836L206.781 4.00845L206.79 4.00589C214.57 1.79099 222.621 0.674058 230.71 0.687504L230.713 0.687497C248.877 0.634747 266.616 6.18138 281.515 16.5722C296.414 26.963 307.749 41.6931 313.976 58.7569C320.203 75.8207 321.02 94.389 316.315 111.934C311.61 129.478 301.613 145.147 287.684 156.806L287.074 157.316L287.799 157.645C310.373 167.86 329.798 183.936 344.055 204.202L344.057 204.205C345.294 205.935 346.175 207.894 346.648 209.968C347.122 212.041 347.178 214.188 346.814 216.284C346.45 218.38 345.673 220.382 344.529 222.175C343.384 223.967 341.894 225.515 340.146 226.727L340.141 226.731C337.428 228.67 334.174 229.707 330.839 229.697C328.247 229.682 325.696 229.05 323.396 227.853C321.097 226.657 319.116 224.93 317.617 222.817ZM317.617 222.817L317.208 223.105L317.616 222.815C317.616 222.816 317.616 222.816 317.617 222.817ZM174.347 156.806L173.74 157.317L174.463 157.645C197.037 167.86 216.462 183.936 230.719 204.202L230.726 204.212L230.734 204.222C232.083 205.95 233.068 207.935 233.627 210.056C234.186 212.176 234.308 214.388 233.986 216.558C233.664 218.727 232.905 220.808 231.754 222.675C230.604 224.542 229.086 226.155 227.293 227.418C225.5 228.68 223.469 229.565 221.323 230.019C219.178 230.473 216.963 230.486 214.812 230.058C212.661 229.629 210.62 228.768 208.812 227.527C207.004 226.286 205.467 224.691 204.295 222.837L204.288 222.827L204.281 222.817C194.485 208.865 181.474 197.476 166.347 189.614C151.22 181.752 134.423 177.647 117.375 177.647C100.327 177.647 83.5299 181.752 68.4032 189.614C53.2765 197.476 40.2651 208.865 30.469 222.817L30.4679 222.819C28.9851 224.948 27.0081 226.687 24.7063 227.885C22.4044 229.082 19.8464 229.704 17.2516 229.697L17.2485 229.697C13.9133 229.708 10.659 228.67 7.94557 226.731L7.94317 226.729C4.44137 224.257 2.06294 220.497 1.32957 216.274C0.596209 212.051 1.56778 207.709 4.03119 204.201C18.2882 183.936 37.7135 167.86 60.2875 157.645L61.0106 157.317L60.4033 156.806C46.5124 145.121 36.5508 129.446 31.8691 111.908C27.1875 94.3696 28.0122 75.8158 34.2314 58.762C40.4506 41.7082 51.7635 26.9793 66.6364 16.5722C81.5093 6.16502 99.2227 0.583069 117.375 0.583069C135.528 0.583069 153.241 6.16502 168.114 16.5722C182.987 26.9793 194.3 41.7082 200.519 58.762C206.738 75.8158 207.563 94.3696 202.881 111.908C198.199 129.446 188.238 145.121 174.347 156.806ZM70.7089 58.0061C64.5418 67.2358 61.2501 78.087 61.2501 89.1875C61.2501 104.073 67.1633 118.348 77.6888 128.874C88.2142 139.399 102.49 145.312 117.375 145.312C128.476 145.312 139.327 142.021 148.557 135.854C157.786 129.687 164.98 120.921 169.228 110.666C173.476 100.41 174.587 89.1252 172.422 78.2381C170.256 67.3509 164.911 57.3504 157.061 49.5011C149.212 41.6519 139.212 36.3065 128.325 34.1409C117.437 31.9753 106.153 33.0868 95.897 37.3348C85.6415 41.5827 76.876 48.7764 70.7089 58.0061Z" fill="#4CAF4F" stroke="#4CAF4F"/>
</svg>
