<svg xmlns="http://www.w3.org/2000/svg" width="48" height="48" viewBox="0 0 48 48" fill="none">
  <path d="M30.3333 10H7V30.2222H30.3333V10Z" stroke="#4CAF4F" stroke-width="3" stroke-linecap="round" stroke-linejoin="round"/>
  <path d="M30.3333 17.7778H36.5555L41.2221 22.4445V30.2223H30.3333V17.7778Z" stroke="#4CAF4F" stroke-width="3" stroke-linecap="round" stroke-linejoin="round"/>
  <path d="M14 37.9999C16.1477 37.9999 17.8889 36.2588 17.8889 34.1111C17.8889 31.9633 16.1477 30.2222 14 30.2222C11.8522 30.2222 10.1111 31.9633 10.1111 34.1111C10.1111 36.2588 11.8522 37.9999 14 37.9999Z" stroke="#4CAF4F" stroke-width="3" stroke-linecap="round" stroke-linejoin="round"/>
  <path d="M34.2221 37.9999C36.3699 37.9999 38.111 36.2588 38.111 34.1111C38.111 31.9633 36.3699 30.2222 34.2221 30.2222C32.0744 30.2222 30.3333 31.9633 30.3333 34.1111C30.3333 36.2588 32.0744 37.9999 34.2221 37.9999Z" stroke="#4CAF4F" stroke-width="3" stroke-linecap="round" stroke-linejoin="round"/>
</svg>