<svg width="32" height="33" viewBox="0 0 32 33" fill="none" xmlns="http://www.w3.org/2000/svg">
<g id="Social Icons">
<path id="BG" opacity="0.1" fill-rule="evenodd" clip-rule="evenodd" d="M0 16.9277C0 8.09118 7.16344 0.927734 16 0.927734C24.8366 0.927734 32 8.09118 32 16.9277C32 25.7643 24.8366 32.9277 16 32.9277C7.16344 32.9277 0 25.7643 0 16.9277Z" fill="white"/>
<path id="Path" fill-rule="evenodd" clip-rule="evenodd" d="M16.0007 8.39429C13.6832 8.39429 13.3923 8.40442 12.4821 8.44584C11.5736 8.48744 10.9535 8.63127 10.4109 8.84229C9.84969 9.06025 9.37359 9.35181 8.89928 9.8263C8.42461 10.3006 8.13305 10.7767 7.91438 11.3378C7.70282 11.8805 7.55882 12.5008 7.51793 13.4089C7.47722 14.3191 7.46655 14.6102 7.46655 16.9277C7.46655 19.2452 7.47686 19.5352 7.51811 20.4454C7.55989 21.3539 7.70371 21.974 7.91456 22.5166C8.13269 23.0778 8.42425 23.5539 8.89875 24.0282C9.37288 24.5029 9.84898 24.7952 10.4099 25.0131C10.9528 25.2242 11.5731 25.368 12.4814 25.4096C13.3916 25.451 13.6823 25.4611 15.9996 25.4611C18.3173 25.4611 18.6073 25.451 19.5175 25.4096C20.426 25.368 21.0468 25.2242 21.5897 25.0131C22.1508 24.7952 22.6262 24.5029 23.1003 24.0282C23.575 23.5539 23.8665 23.0778 24.0852 22.5167C24.295 21.974 24.439 21.3537 24.4817 20.4456C24.5226 19.5354 24.5332 19.2452 24.5332 16.9277C24.5332 14.6102 24.5226 14.3193 24.4817 13.4091C24.439 12.5006 24.295 11.8805 24.0852 11.338C23.8665 10.7767 23.575 10.3006 23.1003 9.8263C22.6256 9.35163 22.151 9.06007 21.5892 8.84229C21.0452 8.63127 20.4247 8.48744 19.5163 8.44584C18.606 8.40442 18.3163 8.39429 15.998 8.39429H16.0007ZM15.2351 9.93206C15.4623 9.9317 15.7158 9.93206 16.0006 9.93206C18.2791 9.93206 18.5491 9.94023 19.4489 9.98112C20.2809 10.0192 20.7324 10.1582 21.0332 10.275C21.4315 10.4297 21.7154 10.6146 22.0139 10.9132C22.3125 11.2119 22.4974 11.4963 22.6525 11.8946C22.7693 12.195 22.9085 12.6466 22.9463 13.4786C22.9872 14.3781 22.9961 14.6484 22.9961 16.9257C22.9961 19.2031 22.9872 19.4733 22.9463 20.3729C22.9083 21.2049 22.7693 21.6564 22.6525 21.9569C22.4978 22.3551 22.3125 22.6387 22.0139 22.9372C21.7152 23.2358 21.4316 23.4207 21.0332 23.5754C20.7328 23.6927 20.2809 23.8314 19.4489 23.8694C18.5493 23.9103 18.2791 23.9192 16.0006 23.9192C13.722 23.9192 13.452 23.9103 12.5524 23.8694C11.7204 23.831 11.2689 23.692 10.9679 23.5752C10.5697 23.4206 10.2852 23.2357 9.98654 22.937C9.68787 22.6383 9.50298 22.3546 9.34796 21.9562C9.23116 21.6557 9.09196 21.2042 9.05409 20.3722C9.0132 19.4726 9.00502 19.2024 9.00502 16.9236C9.00502 14.6448 9.0132 14.376 9.05409 13.4764C9.09213 12.6444 9.23116 12.1929 9.34796 11.8921C9.50263 11.4939 9.68787 11.2094 9.98654 10.9107C10.2852 10.6121 10.5697 10.4272 10.9679 10.2721C11.2687 10.1548 11.7204 10.0161 12.5524 9.97792C13.3396 9.94237 13.6447 9.9317 15.2351 9.92992V9.93206ZM20.5557 11.349C19.9904 11.349 19.5317 11.8071 19.5317 12.3726C19.5317 12.938 19.9904 13.3966 20.5557 13.3966C21.1211 13.3966 21.5797 12.938 21.5797 12.3726C21.5797 11.8073 21.1211 11.349 20.5557 11.349ZM16.0007 12.5454C13.5806 12.5454 11.6184 14.5076 11.6184 16.9277C11.6184 19.3478 13.5806 21.3091 16.0007 21.3091C18.4208 21.3091 20.3823 19.3478 20.3823 16.9277C20.3823 14.5076 18.4208 12.5454 16.0007 12.5454ZM16.0007 14.0832C17.5715 14.0832 18.8451 15.3566 18.8451 16.9277C18.8451 18.4985 17.5715 19.7722 16.0007 19.7722C14.4296 19.7722 13.1562 18.4985 13.1562 16.9277C13.1562 15.3566 14.4296 14.0832 16.0007 14.0832Z" fill="white"/>
</g>
</svg>
