<svg xmlns="http://www.w3.org/2000/svg" width="32" height="33" viewBox="0 0 32 33" fill="none">
  <path opacity="0.1" fill-rule="evenodd" clip-rule="evenodd" d="M0 16.9277C0 8.09118 7.16344 0.927734 16 0.927734C24.8366 0.927734 32 8.09118 32 16.9277C32 25.7643 24.8366 32.9277 16 32.9277C7.16344 32.9277 0 25.7643 0 16.9277Z" fill="white"/>
  <path fill-rule="evenodd" clip-rule="evenodd" d="M15.5208 13.9328L15.5544 14.4865L14.9948 14.4187C12.9579 14.1588 11.1784 13.2775 9.66756 11.7974L8.92891 11.063L8.73865 11.6053C8.33575 12.8143 8.59316 14.091 9.43253 14.9497C9.8802 15.4243 9.77948 15.4921 9.00725 15.2096C8.73865 15.1192 8.50363 15.0514 8.48124 15.0853C8.4029 15.1644 8.6715 16.1926 8.88414 16.5993C9.17513 17.1643 9.76828 17.7179 10.4174 18.0456L10.9658 18.3054L10.3167 18.3167C9.68994 18.3167 9.66756 18.328 9.73471 18.5653C9.95854 19.2997 10.8427 20.0793 11.8276 20.4183L12.5214 20.6556L11.9171 21.0171C11.0218 21.5369 9.96973 21.8306 8.91772 21.8532C8.41409 21.8645 8 21.9097 8 21.9436C8 22.0566 9.36538 22.6893 10.16 22.9379C12.5438 23.6723 15.3753 23.3559 17.5017 22.1018C19.0126 21.2092 20.5235 19.4353 21.2286 17.7179C21.6091 16.8027 21.9896 15.1305 21.9896 14.3283C21.9896 13.8085 22.0232 13.7408 22.6499 13.1193C23.0192 12.7578 23.3662 12.3623 23.4333 12.2493C23.5452 12.0347 23.534 12.0347 22.9633 12.2267C22.012 12.5657 21.8777 12.5205 22.3477 12.0121C22.6947 11.6505 23.1088 10.9952 23.1088 10.8031C23.1088 10.7692 22.9409 10.8257 22.7506 10.9274C22.5492 11.0404 22.1015 11.2098 21.7658 11.3115L21.1614 11.5036L20.613 11.1308C20.3108 10.9274 19.8856 10.7014 19.6617 10.6336C19.0909 10.4754 18.218 10.498 17.7032 10.6788C16.3042 11.1872 15.4201 12.4979 15.5208 13.9328Z" fill="white"/>
</svg>