<svg xmlns="http://www.w3.org/2000/svg" width="32" height="33" viewBox="0 0 32 33" fill="none">
  <path opacity="0.1" fill-rule="evenodd" clip-rule="evenodd" d="M0 16.9277C0 8.09118 7.16344 0.927734 16 0.927734C24.8366 0.927734 32 8.09118 32 16.9277C32 25.7643 24.8366 32.9277 16 32.9277C7.16344 32.9277 0 25.7643 0 16.9277Z" fill="white"/>
  <path fill-rule="evenodd" clip-rule="evenodd" d="M22.6679 11.4273C23.4022 11.6288 23.9805 12.2225 24.1768 12.9765C24.5335 14.3431 24.5335 17.1944 24.5335 17.1944C24.5335 17.1944 24.5335 20.0456 24.1768 21.4122C23.9805 22.1662 23.4022 22.76 22.6679 22.9616C21.3371 23.3277 16.0001 23.3277 16.0001 23.3277C16.0001 23.3277 10.6632 23.3277 9.3323 22.9616C8.59795 22.76 8.01962 22.1662 7.82335 21.4122C7.4668 20.0456 7.4668 17.1944 7.4668 17.1944C7.4668 17.1944 7.4668 14.3431 7.82335 12.9765C8.01962 12.2225 8.59795 11.6288 9.3323 11.4273C10.6632 11.061 16.0001 11.061 16.0001 11.061C16.0001 11.061 21.3371 11.061 22.6679 11.4273ZM14.4001 14.7943V20.1276L18.6668 17.4611L14.4001 14.7943Z" fill="white"/>
</svg>